# xmcd CD database file
#
# Track frame offsets:
#	150
#	13036
#	25446
#	39080
#	50607
#	63644
#	77590
#	90037
#	104171
#	116461
#	129625
#	142621
#	156520
#	170169
#	181219
#	194869
#	208041
#	220636
#	233354
#	246640
#	258114
#	270688
#	283761
#
# Disc length: 3943 seconds
#
# Revision: 0
# Processed by: cddbd v1.5.1PL0 Copyright (c) Steve Scherf et al.
# Submitted via: CDex 1.50beta10
#
DISCID=4b0f6517
DTITLE=Slim Whitman - The Man with the Singing Guitar Vol 1
DYEAR=2004
DGENRE=Country
TTITLE0=By the Waters of the Minnetonka
TTITLE1=My Love is Growing Stale
TTITLE2=Tears Can Never Drown the Flame
TTITLE3=Bandera Waltz
TTITLE4=China Doll
TTITLE5=Please Paint a Rose
TTITLE6=An Amateur in Love
TTITLE7=End of the World
TTITLE8=My Heart is Broken in Three
TTITLE9=Birmingham Jail
TTITLE10=Stairway to Heaven
TTITLE11=In a Hundred Years or More
TTITLE12=Danny Boy
TTITLE13=Keep it a Secret
TTITLE14=All That I'm Asking is Sympathy
TTITLE15=Cold Empty Arms
TTITLE16=North Wind
TTITLE17=Restless Heart
TTITLE18=Love Song of the Waterfall
TTITLE19=How Can I Tell
TTITLE20=Lord Help me be as Thou
TTITLE21=Darlin' Don't Cry
TTITLE22=There's a Rainbow in Every Teardrop
EXTD=YEAR: 2004
EXTT0=
EXTT1=
EXTT2=
EXTT3=
EXTT4=
EXTT5=
EXTT6=
EXTT7=
EXTT8=
EXTT9=
EXTT10=
EXTT11=
EXTT12=
EXTT13=
EXTT14=
EXTT15=
EXTT16=
EXTT17=
EXTT18=
EXTT19=
EXTT20=
EXTT21=
EXTT22=
PLAYORDER=
